<svg width="159" height="55" viewBox="0 0 159 55" fill="none" xmlns="http://www.w3.org/2000/svg">
<path d="M21.0276 55C32.6408 55 42.0552 53.2974 42.0552 51.1972C42.0552 49.0969 32.6408 47.3943 21.0276 47.3943C9.41437 47.3943 0 49.0969 0 51.1972C0 53.2974 9.41437 55 21.0276 55Z" fill="#E6E6E6"/>
<path d="M42.6764 33.2941C42.4575 36.5858 40.1501 38.1637 38.2183 38.9083C36.9773 39.3683 35.6757 39.6451 34.3547 39.7297L34.0293 38.9319L33.9998 38.8581L37.3781 37.5461L37.4669 37.5964C37.9529 37.8409 38.5005 37.9365 39.0407 37.8712L39.0082 37.8534C38.9213 37.8114 38.8381 37.7619 38.7596 37.7057L38.7301 37.685C38.3619 37.4078 38.0721 37.0399 37.889 36.6172C37.706 36.1945 37.6359 35.7317 37.6858 35.2738C37.7982 33.9058 38.8011 33.0489 39.6264 32.647C39.7241 32.6263 39.8247 32.6115 39.9223 32.5997C40.8929 32.5092 41.8651 32.7543 42.6764 33.2941Z" fill="#FDCA14"/>
<path d="M18.7708 45.468V45.5448H18.7469L18.7648 45.468H18.7708Z" fill="black"/>
<path d="M30.6272 35.3122L30.7256 35.2915L30.6272 35.3122Z" fill="black"/>
<path d="M44.691 34.5321C44.3654 33.6613 43.7348 32.938 42.916 32.4962C41.3718 31.6098 39.2359 31.5241 37.8395 32.7415C36.8367 33.5836 36.1651 35.2028 36.5704 36.503C35.6829 37.2092 34.1358 37.7499 33.6358 37.9124L32.4111 34.8896C36.5823 33.7077 40.2831 31.1222 41.286 26.5629C41.7378 24.4175 41.68 22.1962 41.1173 20.0771L41.0966 19.9943C40.91 19.2693 40.6778 18.5568 40.4014 17.8609C39.75 16.1882 38.8977 14.6007 37.8632 13.1332C37.9442 10.6833 37.7206 8.23271 37.1976 5.83774C36.7792 4.05589 36.1774 2.32203 35.4019 0.663831C35.2722 0.388156 35.0387 0.17482 34.7522 0.070232C34.4658 -0.0343561 34.1496 -0.0217187 33.8724 0.105382C31.6075 1.15375 29.5133 2.53631 27.66 4.20669C27.0449 3.90615 26.4093 3.64942 25.7579 3.43842C22.1327 2.27553 18.1996 2.54195 14.7648 4.18304C12.9185 2.52119 10.8322 1.14655 8.57604 0.105382C8.29931 -0.0215959 7.98357 -0.0341487 7.69762 0.0704664C7.41166 0.175082 7.17873 0.388365 7.04958 0.663831C5.28206 4.43785 4.43358 8.57604 4.57349 12.7402H4.60899C3.649 14.0189 2.84552 15.4077 2.2157 16.877C1.83717 17.7488 1.52761 18.6488 1.28979 19.5688C1.28979 19.5984 1.28976 19.6279 1.2661 19.6575C0.693156 21.8318 0.629381 24.1088 1.07972 26.3118C2.0678 30.8947 5.55861 33.6309 9.79489 34.9073L7.47556 40.6338C6.91053 40.882 5.0468 41.8158 4.29243 43.5236C3.89306 44.4308 3.83685 45.852 4.14155 47.3265C4.25101 47.8466 4.6504 49.516 5.45506 50.0804C5.45506 50.1188 5.45504 50.1543 5.43433 50.1927C5.35975 50.757 5.47095 51.3302 5.7511 51.8259C6.03126 52.3216 6.46517 52.7129 6.98744 52.9407C7.57234 53.2117 8.19627 53.3892 8.83637 53.4666C9.46664 53.5508 10.1053 53.5508 10.7356 53.4666C11.6301 53.3667 12.4782 53.0164 13.1821 52.4561C13.4621 52.8232 13.8277 53.1163 14.2471 53.31C15.4304 53.8862 16.951 54.0221 18.1314 53.3425C18.5214 53.106 18.8252 52.7508 18.9982 52.329H23.2551C23.6871 53.3544 24.7994 53.7355 25.8584 53.7474C26.6577 53.7411 27.4431 53.5381 28.1452 53.1564C28.4712 52.9664 28.7558 52.7132 28.9824 52.4118C30.1657 53.446 31.8726 53.6735 33.3932 53.4666C34.0333 53.3892 34.6572 53.2117 35.2421 52.9407C35.765 52.7137 36.1995 52.3226 36.4798 51.8267C36.7601 51.3308 36.8708 50.7571 36.7952 50.1927C36.7952 50.1543 36.7953 50.1188 36.7746 50.0804C37.5763 49.516 37.9786 47.8466 38.0851 47.3265C38.3809 45.8491 38.3365 44.4308 37.9342 43.5236C37.7411 43.0907 37.4794 42.6916 37.1591 42.3417L37.3159 42.321C37.5526 42.2797 37.9076 42.2294 38.1472 42.1762C39.8275 41.8364 41.499 41.2543 42.8361 40.1463C43.4473 39.6553 43.9489 39.0421 44.3086 38.3459C44.6683 37.6497 44.8782 36.8861 44.9247 36.104C44.9247 36.0538 44.9247 36.0036 44.9247 35.9504C44.9218 35.4683 44.8429 34.9897 44.691 34.5321ZM3.9966 30.3067C3.04529 29.0789 2.37754 27.6561 2.04117 26.1404C2.02046 26.0488 2.00273 25.9542 1.98202 25.8626C1.92877 25.5937 1.88733 25.3248 1.85184 25.053C1.85184 24.9614 1.83113 24.8698 1.82226 24.7782C1.78972 24.4827 1.76902 24.1606 1.75719 23.8504C1.75719 23.7588 1.75719 23.6672 1.75719 23.5756C1.75719 23.1944 1.75718 22.8103 1.7838 22.4262C1.82886 21.7316 1.91879 21.0407 2.05302 20.3578C2.05302 20.3282 2.05299 20.2987 2.06779 20.2691C2.6539 17.593 3.71062 15.0418 5.1888 12.7343C5.23614 12.6545 5.28643 12.5748 5.33672 12.4979C5.76271 11.8183 6.22422 11.1564 6.67684 10.5123C6.19815 10.9293 5.74749 11.3775 5.32784 11.8538C5.33201 8.10751 6.1559 4.40742 7.74182 1.01252C7.78287 0.925761 7.8566 0.858732 7.94693 0.826072C8.03727 0.793413 8.13688 0.797765 8.22402 0.838174C10.3195 1.80532 12.2643 3.0692 13.9986 4.59081C13.5527 4.84422 13.1221 5.12344 12.7088 5.42703L12.904 5.3827C15.6631 4.10036 18.6803 3.46851 21.7227 3.53593C24.3725 3.63528 26.9764 4.25687 29.3847 5.36497C29.4735 5.38566 29.5593 5.41225 29.6451 5.43589C29.2421 5.13756 28.8213 4.86421 28.3848 4.61739C29.3442 3.77127 30.3701 3.00352 31.4526 2.3215C32.3317 1.77207 33.2447 1.27862 34.186 0.844089C34.2732 0.80368 34.3728 0.799328 34.4631 0.831988C34.5535 0.864648 34.6272 0.931659 34.6682 1.01841C36.2964 4.50257 37.1203 8.30745 37.0793 12.1522C36.5933 11.5485 36.0686 10.9771 35.5084 10.4414C37.1177 12.8939 38.5939 15.3966 39.5642 18.1594C39.8412 18.9464 40.0655 19.7509 40.2357 20.5676C40.2357 20.5971 40.2358 20.6237 40.2535 20.6533C40.2713 20.6828 40.2801 20.7833 40.292 20.8512C40.3038 20.9192 40.3127 20.9576 40.3216 21.0108C40.6398 22.6569 40.6539 24.3474 40.363 25.9986C40.3452 26.0902 40.3275 26.1788 40.3067 26.2704C40.3067 26.2704 40.3067 26.2704 40.3067 26.2881C40.1337 27.0827 39.8656 27.8535 39.508 28.584C37.7804 32.0471 34.2186 34.0061 30.5651 34.996L30.1154 35.1142C29.8847 35.2501 29.6362 35.386 29.3729 35.522C26.8797 36.8133 24.1141 37.492 21.3056 37.5017H21.2405C18.5046 37.5029 15.8061 36.8665 13.3596 35.6431C13.1437 35.5367 12.9366 35.4274 12.7413 35.3181C12.4455 35.2501 12.1497 35.1762 11.8539 35.0994C8.83048 34.2721 5.91949 32.8094 3.9966 30.3067ZM37.1828 43.8309C37.8898 45.4384 37.1325 48.4671 36.4462 49.2796C36.3814 49.1695 36.3093 49.0639 36.2302 48.9635C36.2131 48.9405 36.1943 48.9188 36.174 48.8985L36.0734 48.7832C35.96 48.6719 35.835 48.5728 35.7007 48.4878C35.6192 48.4372 35.533 48.3946 35.4433 48.3607C35.549 48.5719 35.6399 48.79 35.7155 49.0137C36.0527 50.0538 36.0557 50.8989 35.5498 51.4987C35.5268 51.5286 35.5021 51.5572 35.4759 51.5844C35.4114 51.6525 35.3412 51.7148 35.2658 51.7706C35.2658 51.7144 35.2392 51.6553 35.2244 51.5992C35.2189 51.5723 35.212 51.5456 35.2037 51.5194C35.11 51.1517 34.9517 50.8036 34.7363 50.4911C34.6156 50.3215 34.4564 50.1828 34.2718 50.0863C34.409 50.2256 34.5105 50.3959 34.5677 50.5827C34.6542 50.893 34.6882 51.2156 34.6682 51.5371C34.6682 51.5637 34.6682 51.5903 34.6682 51.6169C34.6562 51.7924 34.6334 51.9671 34.6002 52.1399C34.4713 52.1899 34.34 52.2333 34.2067 52.2699C33.8737 52.3543 33.5358 52.4185 33.195 52.462C33.1359 52.2906 33.0708 52.1192 32.9938 51.9508C32.9306 51.8124 32.8584 51.6781 32.7779 51.549L32.7128 51.4544C32.6184 51.3186 32.4939 51.2063 32.349 51.1264C32.4202 51.208 32.4736 51.3037 32.5057 51.4071L32.5324 51.4957L32.5501 51.5667C32.6113 51.8799 32.6282 52.2002 32.6004 52.5181C31.4827 52.6197 30.3637 52.3394 29.4262 51.7233C29.7141 51.231 29.9614 50.7162 30.1657 50.1838L30.1983 50.104C30.2841 49.8854 30.3669 49.6638 30.4497 49.4422C30.6598 48.8512 30.8491 48.2602 31.0236 47.6693C31.0236 47.6397 31.0236 47.6102 31.0473 47.5806C31.1627 47.1847 31.2692 46.7858 31.3727 46.3987C31.6435 45.3749 31.8588 44.3372 32.0176 43.2902C32.1953 42.2438 32.2814 41.1839 32.275 40.1226C31.852 41.3548 31.5177 42.6608 31.0917 43.8989C31.0325 44.0821 30.9142 44.4633 30.8609 44.6465C30.5651 45.7545 30.2693 46.8715 29.935 47.9677L29.9084 48.0475C29.6657 48.8323 29.3763 49.6019 29.0416 50.3522L28.9617 50.5266C28.6658 51.1589 28.3168 51.8149 27.7784 52.2345C27.696 52.2919 27.6077 52.3405 27.5151 52.3793L27.3908 52.4384C27.4131 52.1322 27.3892 51.8244 27.3198 51.5253V51.4751L27.2932 51.3983C27.2422 51.2425 27.1585 51.0994 27.0477 50.9786C27.1118 51.1269 27.1441 51.287 27.1423 51.4485C27.1438 51.477 27.1438 51.5056 27.1423 51.5342C27.0973 51.9281 26.9757 52.3096 26.7844 52.657C26.3673 52.7804 25.931 52.8254 25.4975 52.79C25.5283 52.4478 25.5143 52.1032 25.4561 51.7646C25.4561 51.7381 25.4561 51.7115 25.4413 51.6849C25.4399 51.6741 25.4399 51.6632 25.4413 51.6524C25.4059 51.4792 25.3276 51.3177 25.2135 51.1826C25.2629 51.3382 25.2731 51.5037 25.2431 51.6642C25.2431 51.6908 25.2431 51.7144 25.2283 51.741C25.1555 52.0581 25.0432 52.3649 24.894 52.6541H24.8674C24.68 52.5997 24.5079 52.5025 24.3647 52.3701C24.2214 52.2378 24.1109 52.074 24.042 51.8917C24.0155 51.8196 23.9947 51.7455 23.9799 51.6701C23.9799 51.6228 23.9592 51.5785 23.9503 51.5283L23.9326 51.4426C23.6698 50.1055 23.544 48.7452 23.5569 47.3826C23.5569 47.3531 23.5569 47.3235 23.5569 47.294C23.5569 47.1847 23.5569 47.0753 23.5569 46.966C23.5625 46.4908 23.5249 46.0161 23.4444 45.5477C23.4444 45.5241 23.4444 45.4975 23.4444 45.4709L23.4267 45.3793H23.4089L23.3557 45.4709C23.3557 45.4975 23.3261 45.5241 23.3143 45.5506C22.9745 46.2847 22.8134 47.0886 22.8439 47.8968V48.1332C22.8439 48.2602 22.8439 48.3902 22.8439 48.5173V48.5971C22.8518 49.5866 22.9328 50.5743 23.0865 51.5519H19.1993C19.3465 50.5551 19.4187 49.5486 19.4152 48.5409C19.4152 48.5232 19.4152 48.5025 19.4152 48.4818V48.3991C19.4152 48.2839 19.4152 48.1716 19.4152 48.0563C19.4167 48.0288 19.4167 48.0012 19.4152 47.9736C19.3945 47.0872 19.3147 46.2007 18.865 45.3881C18.8577 45.4114 18.8518 45.4351 18.8473 45.459V45.5388H18.8265C18.7298 46.0123 18.6842 46.4947 18.6905 46.9778C18.6905 47.0192 18.6905 47.0606 18.6905 47.1049C18.692 47.1325 18.692 47.1601 18.6905 47.1876C18.7118 48.6401 18.575 50.0906 18.2822 51.5135L18.2645 51.611C18.2581 51.6343 18.2532 51.658 18.2497 51.6819C18.2349 51.7592 18.2141 51.8353 18.1876 51.9094C18.1191 52.0999 18.0065 52.2715 17.8589 52.4101C17.7114 52.5488 17.5331 52.6506 17.3386 52.7073C17.1805 52.4125 17.0612 52.0987 16.9835 51.7735C16.9835 51.744 16.9835 51.7174 16.9835 51.6908C16.9551 51.5254 16.9642 51.3558 17.0102 51.1944C16.9008 51.3332 16.8239 51.4948 16.7853 51.6671C16.7763 51.6919 16.7704 51.7177 16.7676 51.744C16.7005 52.1084 16.6865 52.4806 16.7262 52.8491C16.3084 52.8941 15.8859 52.86 15.4807 52.7486C15.2068 52.3164 15.0687 51.8121 15.0843 51.3008C15.0828 51.2742 15.0828 51.2475 15.0843 51.221C15.1007 51.1373 15.1245 51.0552 15.1553 50.9757C15.0984 51.041 15.0488 51.1124 15.0074 51.1885C14.9932 51.2109 14.9813 51.2346 14.9719 51.2594C14.8055 51.6578 14.7473 52.093 14.8033 52.5211L14.6435 52.4472C13.9779 52.1724 13.3774 51.1944 12.8685 50.0006L12.7916 49.8233C12.5993 49.3506 12.4159 48.8512 12.2503 48.3459L12.2207 48.2573C11.7562 46.8389 11.4101 45.4265 11.2149 44.6612C11.1172 44.2801 10.919 43.5236 10.8155 43.1454C10.5729 42.259 10.2445 40.9647 9.928 40.1108C9.91871 40.5051 9.92957 40.8996 9.96054 41.2927C10.0108 41.9517 10.07 42.6165 10.141 43.2725C10.2307 44.3314 10.4179 45.3799 10.7001 46.4046C10.78 46.7001 10.8747 47.0487 10.9959 47.4329L11.0196 47.5156C11.2874 48.4844 11.6125 49.4365 11.9929 50.367C12.005 50.3911 12.0158 50.4157 12.0254 50.4409C12.2198 50.897 12.4451 51.3393 12.6999 51.7646C11.7773 52.3376 10.6938 52.5968 9.61144 52.5034C9.57426 52.1747 9.59228 51.8422 9.66471 51.5194C9.66471 51.4928 9.6647 51.4633 9.68836 51.4367C9.72737 51.3191 9.78645 51.2091 9.86293 51.1116C9.70862 51.2017 9.57624 51.3248 9.47537 51.4721C9.45399 51.4995 9.43425 51.5281 9.41622 51.5578C9.24772 51.8357 9.11453 52.1335 9.01978 52.4443C8.67918 52.3981 8.34143 52.3329 8.00807 52.2492C7.87328 52.2144 7.74089 52.171 7.61167 52.1192C7.61167 52.069 7.5939 52.0188 7.58798 51.9715C7.56727 51.7972 7.54659 51.6169 7.53771 51.4337V51.351C7.51504 51.1214 7.53811 50.8896 7.60564 50.669C7.67317 50.4484 7.78382 50.2433 7.93115 50.0656C7.51201 50.3309 7.20875 50.7447 7.08212 51.2239C7.0729 51.2481 7.06501 51.2728 7.05847 51.2978C7.01016 51.4453 6.96967 51.5952 6.93717 51.7469C6.68133 51.559 6.48348 51.303 6.3662 51.0082C6.35128 50.9729 6.33941 50.9363 6.3307 50.8989C6.32208 50.8738 6.31518 50.8481 6.31001 50.8221C6.18363 50.013 6.3194 49.1847 6.69753 48.4582L6.75968 48.3311L6.69457 48.3577C6.48685 48.4552 6.29844 48.5894 6.13841 48.7537L6.07629 48.8157C5.95408 48.9504 5.84696 49.0981 5.75681 49.256C5.07049 48.4405 4.31612 45.4147 5.02316 43.8073C5.28874 43.2426 5.67797 42.7448 6.1621 42.3506L6.29817 42.2383C6.79404 41.8415 7.34261 41.5154 7.92819 41.2691L8.08795 41.207L10.567 35.0876L11.061 35.2087C11.277 35.259 11.4929 35.3033 11.7089 35.3476L11.9367 35.3919C11.9367 35.4747 11.9367 35.5899 11.9367 35.7347L12.0195 35.782C14.8255 37.4041 18.0103 38.2583 21.2524 38.2581H21.3086C24.555 38.2486 27.7412 37.3821 30.5444 35.7465L30.6242 35.6992C30.6242 35.6165 30.6242 35.4392 30.6538 35.2915L30.7485 35.2737C31.0443 35.2146 31.3402 35.1496 31.636 35.0758L34.0647 41.0623L34.1298 41.2218L34.2866 41.2839C34.7015 41.4577 35.0979 41.6725 35.4699 41.9251C35.5616 41.9901 35.6593 42.058 35.7658 42.129C36.3746 42.5674 36.8622 43.153 37.1828 43.8309ZM43.7236 37.5637C43.6881 37.6465 43.6496 37.7292 43.6112 37.809C43.0243 38.9135 42.0984 39.801 40.9694 40.3413C39.8942 40.8718 38.7486 41.2459 37.5674 41.4523C37.1917 41.5232 36.7716 41.5882 36.384 41.6414C35.8755 41.2379 35.3179 40.9003 34.7244 40.6368V40.6161L34.6919 40.5334L34.3961 39.8094L34.3635 39.7326L34.0411 38.9318L34.0115 38.8609L33.9257 38.6482C34.9973 38.308 36.016 37.8197 36.952 37.1973C37.0794 37.3351 37.2271 37.4527 37.3899 37.546L37.4786 37.5963C37.9643 37.8418 38.5119 37.9385 39.0524 37.874L39.0199 37.8563C38.933 37.8142 38.8499 37.7648 38.7714 37.7085L38.7418 37.6879C38.3592 37.5433 37.9995 37.3442 37.6739 37.0969C36.8456 36.4734 36.9964 35.3004 37.3781 34.4375C37.5799 33.9826 37.8867 33.5819 38.2733 33.2681C38.66 32.9543 39.1155 32.7364 39.6027 32.6321H39.6323C39.7329 32.6114 39.8334 32.5967 39.9281 32.5849C40.8977 32.4952 41.8687 32.7403 42.6793 33.2792L42.7533 33.3295C43.12 33.5665 43.4267 33.8851 43.6495 34.2604C43.8722 34.6356 44.0049 35.0573 44.0372 35.4924C44.1029 36.1981 43.9953 36.9091 43.7236 37.5637Z" fill="black"/>
<path d="M5.47896 45.7309C5.5235 46.7921 5.71056 47.8426 6.03513 48.8541C5.91364 48.9877 5.80748 49.1343 5.7186 49.2914C5.02932 48.4759 4.27496 45.4501 4.98199 43.8457C5.24857 43.2799 5.63877 42.7811 6.12389 42.386C5.66104 43.4387 5.44064 44.5817 5.47896 45.7309Z" fill="#C4A400"/>
<path d="M38.7298 37.6878C38.3472 37.5433 37.9875 37.3442 37.6619 37.0968C36.8336 36.4733 36.9844 35.2973 37.3661 34.4375C37.5681 33.983 37.875 33.5827 38.2617 33.2694C38.6483 32.9561 39.1038 32.7387 39.5907 32.635H39.6232C38.7979 33.0369 37.795 33.8938 37.6826 35.2619C37.6304 35.7223 37.6996 36.1884 37.8833 36.6139C38.067 37.0394 38.3588 37.4096 38.7298 37.6878Z" fill="#C4A400"/>
<path d="M37.378 37.5489L33.9996 38.8608L33.9138 38.6481C34.9865 38.3106 36.0055 37.8221 36.9402 37.1973C37.0694 37.3338 37.2168 37.4521 37.378 37.5489Z" fill="#C4A400"/>
<path d="M43.7063 37.5664C43.6708 37.6491 43.6353 37.7289 43.5939 37.8117C43.0062 38.9155 42.0806 39.8028 40.9522 40.344C39.8769 40.8735 38.7312 41.2467 37.5501 41.452C37.1744 41.5259 36.7543 41.5909 36.3668 41.6411C35.8572 41.2392 35.2998 40.9017 34.7072 40.6365V40.6158L34.6717 40.536C35.6775 40.6306 37.9584 40.7753 39.4493 40.3144C41.1126 39.8465 42.5961 38.8889 43.7063 37.5664Z" fill="#E6E6E6"/>
<path d="M43.7059 37.5664C42.5973 38.8879 41.116 39.8454 39.4549 40.3144C37.9757 40.7753 35.6831 40.6305 34.6772 40.536L34.3814 39.8091L34.3518 39.7323C35.6728 39.6476 36.9744 39.3709 38.2154 38.9108C40.1471 38.1632 42.4546 36.5854 42.6735 33.2966L42.7475 33.3498C43.1144 33.5859 43.4214 33.9039 43.6442 34.2787C43.867 34.6536 43.9996 35.075 44.0314 35.5098C44.0917 36.2116 43.98 36.9174 43.7059 37.5664Z" fill="white"/>
<path d="M18.7708 45.468V45.5448H18.7469L18.7648 45.468H18.7708Z" fill="black"/>
<path d="M30.0919 35.1172C29.8582 35.2531 29.6097 35.389 29.3494 35.525C26.856 36.8185 24.0888 37.4974 21.2791 37.5047H21.2229C18.487 37.5059 15.7885 36.8695 13.342 35.6461C13.1261 35.5397 12.919 35.4304 12.7208 35.324C12.7918 35.3447 14.8655 36.0214 19.4243 36.1602H19.6284H19.8651H20.1816H20.5839H21.0721C26.8053 36.1839 29.9943 35.1497 30.0919 35.1172Z" fill="white"/>
<path d="M40.289 26.2705C40.289 26.2705 40.289 26.2705 40.289 26.2882C40.1147 27.0833 39.8465 27.855 39.4903 28.5871C37.7597 32.0501 34.1979 34.0062 30.5444 34.9961L30.0977 35.1143C30.0001 35.1468 26.811 36.181 21.0897 36.181H20.6016H19.8827H19.646H19.4419C14.8832 36.0421 12.8094 35.3655 12.7384 35.3448C12.4426 35.2798 12.1468 35.2059 11.8509 35.1261C8.83346 34.3076 5.93432 32.845 4.00255 30.3422C3.04784 29.1165 2.37972 27.693 2.04712 26.1759V26.1582C2.73049 27.414 4.16524 29.6685 6.35734 31.2228C9.61147 33.5305 16.5014 34.349 21.4062 34.349C26.462 34.349 33.2986 33.2528 36.0084 31.2228C37.7571 29.8794 39.2136 28.1944 40.289 26.2705Z" fill="#E6E6E6"/>
<path d="M18.6163 47.1109V47.1936C17.8515 46.9259 17.0567 46.7532 16.2497 46.6795C15.4967 46.6398 14.7444 46.7698 14.0485 47.0598C13.3526 47.3498 12.7309 47.7924 12.2294 48.3548C12.2294 48.3253 12.2086 48.2957 12.1997 48.2662C11.7353 46.8479 11.3892 45.4355 11.191 44.6731C11.0934 44.2919 10.8952 43.5326 10.7916 43.1544C10.5491 42.2679 10.2207 40.9737 9.90414 40.1197C9.87752 40.4802 9.92485 40.9412 9.93668 41.3017C9.98697 41.9606 10.0461 42.6284 10.1171 43.2844C10.2086 44.3431 10.3957 45.3914 10.6763 46.4165C10.7561 46.712 10.8538 47.0577 10.9721 47.4418L10.9957 47.5245C10.4928 47.4566 8.15578 47.2291 6.67367 48.4849C6.69142 48.4405 6.71211 48.3992 6.73282 48.3548L6.66775 48.3844C6.45907 48.4805 6.26962 48.6136 6.10862 48.7774L6.04651 48.8424C5.72194 47.8309 5.53488 46.7804 5.49035 45.7191C5.45203 44.57 5.67239 43.427 6.13524 42.3743L6.27134 42.262C6.76864 41.8688 7.31572 41.5429 7.89841 41.2928L8.05813 41.2308L10.5372 35.1143L11.0312 35.2325C11.2472 35.2827 11.4631 35.33 11.682 35.3713L11.9098 35.4157C11.9098 35.4984 11.9098 35.6136 11.9098 35.7584C11.9729 37.3068 12.2243 38.8418 12.6583 40.3295C13.0099 41.6267 13.6454 42.8297 14.5191 43.8517C14.9781 44.3727 15.5415 44.7915 16.1729 45.0812C16.8043 45.3708 17.4897 45.5247 18.1844 45.533H18.7465C18.6506 46.0065 18.606 46.4889 18.6134 46.972C18.6134 47.0252 18.6163 47.0813 18.6163 47.1109Z" fill="#FDCA14"/>
<path d="M19.1462 51.5579C19.2924 50.5609 19.3636 49.5545 19.3592 48.5469V48.4878C19.9615 48.6843 20.5895 48.7909 21.2229 48.804H21.2762C21.7855 48.7795 22.292 48.7143 22.7908 48.6089C22.7964 49.5985 22.8766 50.5862 23.0305 51.5638L19.1462 51.5579Z" fill="#FDCA14"/>
<path d="M22.7907 48.145C22.7907 48.272 22.7907 48.402 22.7907 48.532C22.7907 48.5586 22.7907 48.5852 22.7907 48.6118C22.2918 48.7172 21.7853 48.7824 21.2761 48.8069H21.2228C20.5893 48.7938 19.9613 48.6872 19.3591 48.4907C19.3576 48.4621 19.3576 48.4335 19.3591 48.405C19.3591 48.2927 19.3591 48.1775 19.3591 48.0622C19.9144 47.8514 20.5017 47.7365 21.0956 47.7224C21.6769 47.7004 22.2569 47.7928 22.8025 47.9943L22.7907 48.145Z" fill="#E6E6E6"/>
<path d="M30.5978 35.7375C30.5712 36.819 30.2813 42.3209 26.9768 44.738C26.9768 44.738 25.9207 45.5653 23.5334 45.5653H23.4121C23.4121 45.5387 23.4121 45.5121 23.4121 45.4855L23.3914 45.3969H23.3736L23.3204 45.4855C23.3204 45.5121 23.2938 45.5387 23.279 45.5653C22.9401 46.2996 22.78 47.1035 22.8116 47.9114C22.8101 47.939 22.8101 47.9666 22.8116 47.9942C22.2659 47.7927 21.6859 47.7003 21.1046 47.7223C20.5107 47.7364 19.9235 47.8513 19.3681 48.0621V47.9676C19.3444 47.0811 19.2675 46.1947 18.8179 45.3851H18.8001L18.7823 45.456L18.7646 45.5328H18.2025C17.5078 45.5246 16.8225 45.3706 16.1911 45.081C15.5597 44.7914 14.9962 44.3725 14.5372 43.8515C13.6635 42.8295 13.028 41.6265 12.6764 40.3294C12.2424 38.8416 11.9911 37.3066 11.928 35.7582L12.0079 35.8055C14.8142 37.4269 17.9987 38.2809 21.2407 38.2817H21.2998C24.5461 38.2712 27.7322 37.4048 30.5357 35.77L30.5978 35.7375Z" fill="white"/>
<path d="M25.1869 51.7677C25.1163 52.0845 25.0039 52.3905 24.8526 52.6777H24.826C24.6386 52.6234 24.4665 52.5262 24.3232 52.3939C24.18 52.2616 24.0695 52.0977 24.0006 51.9154C23.9754 51.8439 23.9547 51.7708 23.9385 51.6968C23.9385 51.6495 23.9208 51.6022 23.9089 51.5549C24.3288 51.6586 24.7561 51.7297 25.1869 51.7677Z" fill="#E6E6E6"/>
<path d="M27.1101 51.5371V51.5519C27.064 51.9461 26.9414 52.3275 26.7492 52.6748C26.3334 52.7997 25.8978 52.8448 25.4653 52.8077C25.4934 52.4654 25.4785 52.121 25.4209 51.7824H25.6487C25.87 51.7839 26.0909 51.7641 26.3084 51.7233C26.5787 51.6751 26.8462 51.613 27.1101 51.5371Z" fill="#E6E6E6"/>
<path d="M28.95 50.5237C28.6542 51.159 28.3051 51.815 27.7667 52.2316C27.6827 52.2889 27.5935 52.3383 27.5004 52.3793L27.3791 52.4354C27.4004 52.1301 27.3755 51.8233 27.3052 51.5254V51.4722C27.9102 51.2664 28.4691 50.9442 28.95 50.5237Z" fill="#E6E6E6"/>
<path d="M36.4404 49.2944C36.3774 49.1823 36.3052 49.0755 36.2245 48.9753C36.9116 47.6882 37.1211 46.2 36.8161 44.7735C36.6683 43.828 36.3005 42.9303 35.7422 42.1526C36.3565 42.5864 36.8502 43.169 37.177 43.8457C37.8841 45.4502 37.1297 48.4789 36.4404 49.2944Z" fill="#C4A400"/>
<path d="M36.2243 48.9753L36.1711 48.9103C36.1385 48.8719 36.103 48.8335 36.0675 48.798C35.9559 48.6846 35.8307 48.5853 35.6948 48.5025C35.6133 48.4519 35.5271 48.4094 35.4374 48.3755C34.6466 47.8262 33.7164 47.5117 32.7542 47.4683C32.1657 47.4669 31.5793 47.5394 31.0088 47.684L31.0355 47.5984C31.1508 47.2024 31.2573 46.8065 31.3609 46.4164C31.6302 45.3923 31.8455 44.3547 32.0058 43.3079C32.1825 42.2615 32.2676 41.2016 32.2602 40.1404C31.8372 41.3725 31.5029 42.6786 31.0769 43.9166C31.0177 44.0998 30.9023 44.484 30.8491 44.6672C30.5533 45.7723 30.2574 46.8892 29.9202 47.9854C29.9202 48.012 29.9202 48.0386 29.8965 48.0652C28.9947 47.3638 27.9376 46.8886 26.814 46.6794C25.4916 46.4903 24.1515 47.0872 23.5155 47.4181V47.3295C23.5155 47.2201 23.5155 47.1108 23.5155 47.0044C23.5199 46.5293 23.4823 46.0547 23.4031 45.5861H23.5243C25.9117 45.5861 26.956 44.7676 26.9678 44.7588C30.2722 42.3417 30.5621 36.8398 30.5888 35.7584V35.7406C30.5888 35.6579 30.5887 35.4836 30.6183 35.3358L30.716 35.3181C31.0118 35.259 31.3076 35.194 31.6035 35.1201L34.0293 41.1095L34.0943 41.2662L34.2541 41.3282C34.6686 41.5027 35.065 41.7175 35.4374 41.9694C35.5321 42.0315 35.6267 42.0994 35.7332 42.1733C36.2914 42.9511 36.6592 43.8487 36.8071 44.7942C37.1098 46.2131 36.9035 47.693 36.2243 48.9753Z" fill="#FDCA14"/>
<path d="M29.8996 48.0446C29.6561 48.8292 29.3667 49.5987 29.0328 50.3494C29.0032 50.4085 28.9766 50.4676 28.95 50.5237C28.4651 50.948 27.9011 51.2723 27.2903 51.4781C27.2838 51.4521 27.2759 51.4265 27.2667 51.4013C27.2127 51.2469 27.1293 51.1044 27.0211 50.9817C27.083 51.1305 27.1142 51.2904 27.1128 51.4515C27.1143 51.4801 27.1143 51.5086 27.1128 51.5372C26.8491 51.615 26.5815 51.6791 26.3111 51.7293C26.0937 51.7701 25.8727 51.7899 25.6514 51.7884H25.4237C25.4202 51.7615 25.4152 51.7349 25.4088 51.7086C25.4105 51.6988 25.4105 51.6888 25.4088 51.679C25.3734 51.505 25.2951 51.3425 25.1811 51.2062C25.2334 51.3613 25.2436 51.5276 25.2107 51.6879C25.2072 51.7147 25.2022 51.7414 25.1959 51.7677C24.7648 51.7268 24.3375 51.6527 23.9179 51.5461L23.9001 51.4604C23.637 50.1224 23.5121 48.761 23.5274 47.3975C24.1516 47.0665 25.5035 46.4697 26.8259 46.6588C27.9464 46.8693 29.0003 47.3445 29.8996 48.0446Z" fill="#FAFBFB"/>
<path d="M34.6506 51.6229C34.6383 51.7994 34.6156 51.975 34.5826 52.1489C34.4538 52.1982 34.3224 52.2406 34.1891 52.2759C33.8561 52.3613 33.5182 52.4264 33.1774 52.4709C33.1201 52.2963 33.0539 52.1247 32.9792 51.9568C32.9147 51.8189 32.8426 51.6848 32.7632 51.5549C33.0331 51.6078 33.3076 51.6345 33.5826 51.6347C34.0086 51.6347 34.3607 51.6288 34.6506 51.6229Z" fill="#E6E6E6"/>
<path d="M32.5854 52.524C31.4686 52.627 30.35 52.3466 29.4141 51.7292C29.6997 51.2356 29.9469 50.721 30.1537 50.1897C30.8214 50.8164 31.6347 51.2673 32.5203 51.5016C32.5286 51.5249 32.5355 51.5485 32.541 51.5725C32.5986 51.8863 32.6135 52.2063 32.5854 52.524Z" fill="#E6E6E6"/>
<path d="M35.47 51.5903C35.4056 51.6594 35.3354 51.7227 35.26 51.7794C35.26 51.7204 35.2333 51.6613 35.2215 51.6051L35.47 51.5903Z" fill="#E6E6E6"/>
<path d="M35.5467 51.5134C35.5227 51.5424 35.497 51.57 35.4698 51.5962H35.2213C35.2213 51.5696 35.2214 51.543 35.1977 51.5164C35.1044 51.15 34.9472 50.8029 34.7332 50.4911C34.613 50.3198 34.4525 50.1808 34.2658 50.0863C34.4049 50.224 34.5067 50.3948 34.5616 50.5827C34.6474 50.8921 34.6804 51.2137 34.6593 51.5341C34.6607 51.5607 34.6607 51.5873 34.6593 51.6139C34.3634 51.6139 34.0173 51.6139 33.5913 51.6139C33.3162 51.6137 33.0418 51.587 32.7719 51.5341C32.7529 51.5024 32.7321 51.4719 32.7098 51.4425C32.6151 51.3058 32.4894 51.1934 32.3429 51.1145C32.415 51.195 32.4694 51.2896 32.5026 51.3923C32.5142 51.421 32.5232 51.4506 32.5293 51.4809C31.6436 51.2466 30.8303 50.7957 30.1627 50.169L30.1922 50.0892C30.281 49.8706 30.3638 49.6519 30.4466 49.4303C30.6577 48.8393 30.848 48.2484 31.0176 47.6574C31.5881 47.5127 32.1744 47.4402 32.763 47.4417C33.7252 47.4851 34.6554 47.7996 35.4462 48.3488C35.5533 48.5607 35.6452 48.7799 35.7213 49.0048C36.0497 50.0626 36.0497 50.9225 35.5467 51.5134Z" fill="white"/>
<path d="M18.253 51.6167C18.253 51.6403 18.2529 51.664 18.2381 51.6906C18.2226 51.7665 18.2029 51.8414 18.179 51.9151C18.1096 52.1059 17.9964 52.2777 17.8484 52.4168C17.7004 52.5558 17.5218 52.6583 17.327 52.7159C17.1695 52.4199 17.0501 52.1052 16.972 51.7792C17.0844 51.7792 17.188 51.7792 17.2856 51.7792C17.6157 51.7907 17.9447 51.7354 18.253 51.6167Z" fill="#E6E6E6"/>
<path d="M16.6995 52.8579C16.2816 52.8998 15.8597 52.8657 15.454 52.7574C15.1817 52.3234 15.0438 51.8187 15.0576 51.3066C15.6027 51.5094 16.1665 51.6579 16.7409 51.7499C16.6752 52.1155 16.6613 52.4884 16.6995 52.8579Z" fill="#E6E6E6"/>
<path d="M14.7887 52.5268L14.6261 52.4529C13.9604 52.1781 13.3629 51.203 12.8511 50.0093C13.4696 50.5526 14.1824 50.9782 14.9544 51.2651C14.789 51.6638 14.7319 52.099 14.7887 52.5268Z" fill="#E6E6E6"/>
<path d="M18.2825 51.5134C18.2825 51.5459 18.2825 51.5784 18.2618 51.6109C17.9546 51.7346 17.6256 51.795 17.2944 51.7882C17.1968 51.7882 17.0933 51.7882 16.9808 51.7882C16.9794 51.7606 16.9794 51.733 16.9808 51.7055C16.9533 51.5399 16.9634 51.3702 17.0104 51.209C16.9 51.3476 16.8222 51.5092 16.7827 51.6818L16.7649 51.7586C16.1905 51.6666 15.6267 51.5182 15.0816 51.3154C15.0802 51.2888 15.0802 51.2622 15.0816 51.2357C15.096 51.1518 15.1188 51.0696 15.1497 50.9904C15.0927 51.0567 15.0431 51.1291 15.0018 51.2061L14.9663 51.274C14.1943 50.9872 13.4814 50.5616 12.8629 50.0182L12.789 49.838C12.5937 49.3652 12.4132 48.8659 12.2476 48.3606C12.7491 47.7982 13.3708 47.3555 14.0667 47.0655C14.7626 46.7755 15.5149 46.6455 16.2679 46.6852C17.0749 46.759 17.8697 46.9316 18.6345 47.1993C18.6722 48.6458 18.5542 50.0921 18.2825 51.5134Z" fill="#FAFBFB"/>
<path d="M12.6615 51.7884C11.7385 52.3603 10.655 52.6185 9.57301 52.5242C9.53879 52.1964 9.55674 51.8653 9.62624 51.5431C10.4905 51.3772 11.3021 51.0063 11.9929 50.4617C12.1835 50.9194 12.4069 51.3628 12.6615 51.7884Z" fill="#E6E6E6"/>
<path d="M9.38095 51.5814C9.20956 51.8581 9.07529 52.1561 8.98159 52.4678C8.6408 52.4227 8.30295 52.3576 7.96984 52.2728C7.83967 52.2373 7.70656 52.196 7.57344 52.1457C7.57344 52.0926 7.55566 52.0423 7.54975 51.995C7.52904 51.8207 7.50836 51.6405 7.50244 51.4573C7.82654 51.5311 8.1559 51.5795 8.48754 51.6021C8.597 51.6021 8.70348 51.6021 8.80702 51.6021C8.99857 51.6073 9.19028 51.6004 9.38095 51.5814Z" fill="#E6E6E6"/>
<path d="M7.02015 51.3272C6.97282 51.4749 6.93435 51.6227 6.90181 51.7763C6.645 51.5874 6.44619 51.3305 6.32788 51.0347C6.54993 51.1516 6.78153 51.2494 7.02015 51.3272Z" fill="#E6E6E6"/>
<path d="M9.65578 51.4571C9.69256 51.3401 9.75076 51.2309 9.82738 51.135C9.67285 51.2224 9.54108 51.3449 9.44279 51.4926C9.41877 51.5197 9.39794 51.5494 9.38068 51.5812C9.19032 51.6052 8.99861 51.617 8.80675 51.6167C8.70321 51.6167 8.59672 51.6167 8.48727 51.6167C8.15562 51.5941 7.82626 51.5457 7.50217 51.4719V51.3921C7.47982 51.1625 7.50304 50.9308 7.57056 50.7103C7.63808 50.4897 7.74855 50.2846 7.89561 50.1068C7.47686 50.3712 7.1736 50.7838 7.04658 51.2621L7.02289 51.3389C6.78418 51.2602 6.55261 51.1613 6.33065 51.0434C6.33065 51.008 6.30403 50.9725 6.29516 50.9371C6.28628 50.9016 6.29517 50.8839 6.27446 50.8602C6.15004 50.0509 6.28679 49.2229 6.66494 48.4964C8.14409 47.2347 10.4841 47.4681 10.987 47.5361C11.2564 48.5048 11.5823 49.4569 11.9633 50.3875C11.9633 50.4111 11.984 50.4377 11.9958 50.4613C11.305 51.006 10.4934 51.3768 9.62916 51.5428C9.6349 51.5134 9.64382 51.4846 9.65578 51.4571Z" fill="#FAFBFB"/>
<path d="M19.8796 9.3155C19.9062 9.4337 19.9299 9.55189 19.9535 9.67009C19.9388 9.59031 19.921 9.50757 19.9032 9.42779C19.8855 9.34801 19.8885 9.35392 19.8796 9.3155ZM19.8086 8.99048C19.8323 9.09685 19.8589 9.20617 19.8796 9.3155C19.8796 9.27709 19.8648 9.24163 19.8559 9.20618C19.847 9.17072 19.8234 9.06139 19.8086 8.99048Z" fill="#FF9600"/>
<path d="M23.823 4.51414H24.0952H23.823ZM20.9121 4.47277H20.8411H20.5452H20.2287L19.6045 4.50527C20.8973 4.43731 22.3084 4.41958 23.7195 4.48754C23.2432 4.4639 22.7728 4.44914 22.3113 4.44323C21.8498 4.43732 21.3765 4.46391 20.9121 4.47277Z" fill="#FF9600"/>
<path d="M40.2268 20.5469C40.0566 19.7302 39.8323 18.9257 39.5553 18.1387C38.585 15.3759 37.1088 12.8732 35.4994 10.4207C36.0596 10.9564 36.5843 11.5279 37.0703 12.1315C37.1114 8.28676 36.2874 4.48187 34.6593 0.997721C34.6182 0.910965 34.5445 0.843954 34.4542 0.811294C34.3638 0.778634 34.2642 0.782987 34.1771 0.823396C33.2357 1.25793 32.3228 1.75138 31.4436 2.30081C30.3611 2.98282 29.3353 3.75058 28.3759 4.5967C28.8123 4.84352 29.2332 5.11687 29.6361 5.41519C29.5503 5.39156 29.4645 5.36496 29.3758 5.34428L29.2929 5.32064L29.3728 5.35609C27.6747 4.90503 25.9352 4.62684 24.181 4.52579H24.0952H23.823H23.7343C23.3793 4.50806 23.0243 4.49624 22.6752 4.48737H22.3262H21.1902H20.9121H20.8411H20.5453H20.2287L19.6045 4.51989H19.3087L19.1105 4.53466H18.9152H18.7023L18.2851 4.56716H18.2023C16.4139 4.71655 14.6358 4.97111 12.8773 5.32951L12.9277 5.30587H12.8803L12.6851 5.3502C13.0983 5.0466 13.529 4.76739 13.9749 4.51397C12.2406 2.99237 10.2957 1.72848 8.2003 0.761338C8.11316 0.720929 8.01355 0.716577 7.92321 0.749236C7.83288 0.781896 7.75915 0.848925 7.7181 0.935681C6.13218 4.33058 5.30829 8.03068 5.30412 11.7769C5.72377 11.3007 6.17439 10.8525 6.65308 10.4354C6.18863 11.0796 5.73899 11.7415 5.313 12.4211C5.26271 12.4979 5.21242 12.5777 5.16508 12.6575C3.6869 14.965 2.63018 17.5161 2.04407 20.1923C2.04407 20.2218 2.04409 20.2514 2.0293 20.2809C4.11306 21.9616 6.5805 23.1015 9.21201 23.5992C9.97358 23.7451 10.747 23.8202 11.5225 23.8238C13.1622 23.8606 14.7756 23.4068 16.1552 22.5207H16.1907C19.3742 21.4073 22.834 21.3586 26.0477 22.3818H26.0773C27.231 23.1501 28.7397 23.6819 30.6952 23.8799C30.9331 23.9037 31.172 23.9155 31.4111 23.9154C34.3871 23.9154 37.7507 22.1809 40.2298 20.5735C40.2386 20.603 40.2357 20.5764 40.2268 20.5469ZM7.5761 7.96521C7.48747 8.02088 7.38497 8.05056 7.28027 8.0509C7.19362 8.05072 7.10829 8.02943 7.03175 7.98886C6.94372 7.94638 6.86938 7.88014 6.8171 7.79763C6.76482 7.71512 6.73668 7.61963 6.73592 7.52199C6.74409 6.10209 6.90077 4.68693 7.20336 3.29954C7.3143 2.87337 7.49414 2.46816 7.73583 2.09988C7.80114 1.99949 7.88579 1.91306 7.98482 1.84559C8.08385 1.77813 8.1953 1.73098 8.31272 1.70689C8.5516 1.65712 8.80048 1.70387 9.00495 1.8369C9.49011 2.15898 10.0818 2.59334 10.6439 3.01883C11.2059 3.44433 11.7384 3.87868 12.123 4.18008C12.1812 4.22574 12.2275 4.2848 12.2579 4.3522C12.2883 4.41961 12.3019 4.49336 12.2975 4.56716C12.2948 4.64072 12.2746 4.71259 12.2386 4.77681C12.2026 4.84104 12.1518 4.89577 12.0904 4.93651C11.1556 5.57476 8.8393 7.13195 7.5761 7.96521ZM10.3569 13.9015C10.4072 13.148 11.5136 12.6043 12.8182 12.6929C14.1228 12.7816 15.1493 13.4612 15.099 14.2147C15.0729 14.4073 14.9977 14.5899 14.8807 14.7451C14.7636 14.9003 14.6086 15.0229 14.4305 15.1011C13.9604 15.3415 13.4379 15.4614 12.9099 15.4498H12.6377C11.3302 15.3375 10.2948 14.655 10.3569 13.9015ZM16.0486 19.3974C16.0223 20.1567 15.7642 20.8897 15.3091 21.4983C15.1408 21.7372 14.92 21.9343 14.6636 22.0747C14.4072 22.215 14.122 22.2948 13.8299 22.3079H13.7471C13.4395 22.2801 13.1435 22.1768 12.8854 22.0072C12.6274 21.8376 12.4153 21.607 12.268 21.3358C11.883 20.6819 11.7066 19.9264 11.7621 19.1699C11.8508 17.5034 12.8862 16.2151 14.0666 16.2624C15.247 16.3097 16.1403 17.7309 16.0486 19.3974ZM29.6154 21.327C29.4681 21.5981 29.2559 21.8288 28.9979 21.9983C28.7399 22.1679 28.4439 22.2712 28.1363 22.2991H28.0534C26.9056 22.2991 25.9175 21.0196 25.8288 19.3915C25.8288 19.3118 25.8288 19.2349 25.8288 19.1581C25.8288 17.595 26.6867 16.3126 27.8138 16.2505C28.1213 16.2482 28.4248 16.3207 28.698 16.4617C28.9712 16.6028 29.2058 16.8082 29.3817 17.0602C29.8238 17.6747 30.0804 18.4028 30.1213 19.1584C30.1622 19.914 29.9856 20.6655 29.6125 21.324L29.6154 21.327ZM30.8904 14.915C30.3959 15.2195 29.8319 15.3934 29.2515 15.4202H28.9735C28.485 15.4286 28.0008 15.3276 27.5564 15.1248C27.086 14.8972 26.8139 14.5692 26.7902 14.1999C26.7666 13.8305 26.9914 13.4671 27.4263 13.1805C27.9217 12.8755 28.4867 12.7016 29.0681 12.6752C30.3757 12.5895 31.4791 13.1303 31.5294 13.8837C31.5561 14.2649 31.3283 14.6284 30.8904 14.915ZM35.2036 8.0509C35.0989 8.05056 34.9964 8.02088 34.9078 7.96521C33.6505 7.13491 31.3283 5.57476 30.3905 4.94243C30.3291 4.90169 30.2783 4.84694 30.2423 4.78271C30.2063 4.71849 30.1861 4.64663 30.1834 4.57307C30.179 4.49927 30.1926 4.42552 30.223 4.35812C30.2534 4.29071 30.2997 4.23165 30.3579 4.18599C31.0975 3.59503 32.4908 2.47515 33.4641 1.82213C33.5648 1.75619 33.6775 1.71077 33.7958 1.68846C33.9141 1.66614 34.0356 1.66739 34.1534 1.69212C34.2709 1.71621 34.3823 1.76336 34.4813 1.83082C34.5804 1.89828 34.665 1.9847 34.7303 2.0851C34.972 2.45337 35.1519 2.8586 35.2628 3.28477C35.5654 4.67216 35.722 6.08732 35.7302 7.50722C35.7294 7.60486 35.7013 7.70034 35.6491 7.78284C35.5968 7.86535 35.5224 7.93161 35.4344 7.97409C35.3643 8.01684 35.2854 8.0431 35.2036 8.0509Z" fill="#FDCA14"/>
<path d="M14.0666 16.2714C12.8833 16.2094 11.8508 17.5125 11.7591 19.179C11.7033 19.9355 11.8798 20.6911 12.265 21.3449C12.413 21.6158 12.6252 21.8463 12.8831 22.0163C13.141 22.1863 13.4366 22.2905 13.7442 22.32H13.8299C14.1222 22.3075 14.4076 22.2279 14.6641 22.0875C14.9206 21.9471 15.1413 21.7497 15.3091 21.5103C15.7625 20.9019 16.0204 20.1704 16.0487 19.4124C16.1345 17.7429 15.247 16.3512 14.0666 16.2714ZM15.1168 18.9042C15.1035 19.1544 15.025 19.3968 14.889 19.6074C14.8432 19.686 14.7788 19.7521 14.7014 19.8001C14.6241 19.848 14.5361 19.8762 14.4453 19.8822H14.4186C14.0725 19.8586 13.827 19.3799 13.8625 18.8155C13.8759 18.5658 13.9555 18.3241 14.0932 18.1152C14.1398 18.0316 14.2081 17.9619 14.2908 17.9136C14.3735 17.8653 14.4678 17.84 14.5636 17.8404C14.9068 17.8641 15.1553 18.3428 15.1168 18.9042Z" fill="black"/>
<path d="M15.1169 18.9038C15.1035 19.1541 15.025 19.3965 14.8891 19.6071C14.8433 19.6857 14.7788 19.7518 14.7015 19.7997C14.6241 19.8476 14.5361 19.8759 14.4453 19.8819H14.4187C14.0725 19.8582 13.827 19.3796 13.8625 18.8152C13.8759 18.5655 13.9555 18.3237 14.0933 18.1149C14.1399 18.0312 14.2081 17.9616 14.2908 17.9133C14.3736 17.8649 14.4678 17.8397 14.5637 17.8401C14.9068 17.8637 15.1553 18.3424 15.1169 18.9038Z" fill="white"/>
<path d="M15.0933 14.2294C15.064 14.4187 14.9878 14.5976 14.8715 14.7499C14.7553 14.9021 14.6027 15.0229 14.4277 15.1011C13.9569 15.3392 13.4347 15.4579 12.9071 15.4468H12.632C11.3244 15.3611 10.3038 14.6756 10.3541 13.9221C10.4044 13.1686 11.5078 12.6249 12.8154 12.7136C14.123 12.8022 15.1436 13.4759 15.0933 14.2294Z" fill="white"/>
<path d="M12.2978 4.58481C12.2943 4.65893 12.2735 4.73121 12.237 4.79585C12.2005 4.8605 12.1494 4.91573 12.0878 4.95712C11.1529 5.5865 8.83363 7.14369 7.57044 7.97695C7.48307 8.0357 7.37993 8.06663 7.27461 8.06561C7.18661 8.06577 7.1 8.04338 7.02312 8.00059C6.93554 7.95834 6.86148 7.89255 6.80923 7.81061C6.75698 7.72867 6.7286 7.63382 6.72729 7.53668C6.73447 6.11656 6.89217 4.7012 7.19769 3.31424C7.30678 2.88742 7.48675 2.48191 7.73016 2.11458C7.79598 2.01424 7.88097 1.92783 7.98024 1.8603C8.0795 1.79278 8.19109 1.74544 8.30868 1.72102C8.42626 1.6966 8.54751 1.69557 8.6655 1.71797C8.78349 1.74038 8.89591 1.78578 8.99632 1.85159C9.48148 2.17072 10.0732 2.60508 10.6352 3.03353C11.1973 3.46198 11.7298 3.89338 12.1144 4.19477C12.1741 4.24029 12.2219 4.29951 12.2538 4.3674C12.2858 4.43529 12.3008 4.50986 12.2978 4.58481Z" fill="#C4A400"/>
<path d="M40.3066 21.002C40.3066 20.9488 40.2889 20.8956 40.277 20.8424L40.2415 20.6563C37.7625 22.2637 34.3989 23.9982 31.4229 23.9982C31.1803 23.9982 30.9407 23.9864 30.704 23.9627C28.7249 23.7647 27.2162 23.224 26.0565 22.4439C22.8428 21.4207 19.383 21.4694 16.1994 22.5828C14.8137 23.4843 13.1876 23.9468 11.5342 23.9095C10.7588 23.9061 9.98534 23.8309 9.2238 23.685C6.59079 23.1891 4.1219 22.049 2.03808 20.3667C1.90628 21.0499 1.81735 21.7408 1.77182 22.4351C1.74816 22.8163 1.73929 23.1974 1.74225 23.5727V23.8475C1.74225 24.1607 1.77186 24.471 1.8044 24.7753C1.8044 24.8669 1.8251 24.9585 1.83693 25.0501C1.86948 25.319 1.91383 25.5849 1.96412 25.8479C1.98483 25.9425 2.0026 26.0341 2.02331 26.1257C2.70668 27.3815 4.14143 29.636 6.33353 31.1902C9.58766 33.4979 16.4775 34.3164 21.3824 34.3164C26.4381 34.3164 33.2747 33.2202 35.9845 31.1902C37.7361 29.8552 39.1976 28.1784 40.28 26.2616C40.3007 26.1729 40.3185 26.0813 40.3362 25.9897C40.6325 24.3394 40.6225 22.6487 40.3066 21.002Z" fill="white"/>
<path d="M25.944 27.9782C25.613 28.4338 25.1325 28.759 24.5862 28.8972L24.4826 28.9238C24.1158 29.5916 23.0745 31.0808 21.1249 30.9922C20.4459 30.9556 19.789 30.739 19.2217 30.3645C18.6544 29.9901 18.1973 29.4713 17.8974 28.8617L17.7969 28.8322C17.3544 28.7257 16.9552 28.4866 16.6528 28.147C16.3503 27.8074 16.1591 27.3835 16.1047 26.9322V26.8613C16.1047 26.8052 16.1047 26.752 16.1047 26.6988C16.0961 26.4873 16.116 26.2756 16.1639 26.0694C16.3857 27.4139 17.0839 28.3742 18.495 28.4333C18.9907 28.4657 19.4877 28.3932 19.9535 28.2205C20.1907 28.1243 20.4039 27.9773 20.5781 27.79C20.7524 27.6026 20.8835 27.3794 20.9623 27.1361V27.1154L21.0036 25.768C19.205 25.6203 18.6755 23.8267 18.6755 23.8267C18.6755 23.8267 18.8974 22.6448 21.1664 22.6448C23.4354 22.6448 23.7519 23.7588 23.7519 23.7588C23.7519 23.7588 23.2757 25.6055 21.48 25.7562L21.4592 27.0859C21.5563 27.4084 21.7385 27.6988 21.9869 27.9265C22.2352 28.1543 22.5404 28.311 22.8704 28.3801C23.0782 28.4353 23.2915 28.467 23.5064 28.4747C23.9977 28.5252 24.4932 28.4318 24.9323 28.2058C25.1658 28.0696 25.3675 27.8853 25.5239 27.665C25.7265 27.4593 25.8908 27.2191 26.0091 26.9559C26.1409 26.6767 26.2229 26.3767 26.2517 26.0694H26.2694C26.2694 26.1138 26.2695 26.1581 26.2872 26.2053C26.3049 26.2526 26.2872 26.359 26.3049 26.4388C26.3288 26.9753 26.204 27.5081 25.944 27.9782Z" fill="white"/>
<path d="M23.7016 28.9916C23.5374 28.9888 23.3735 28.977 23.2106 28.9561L22.965 28.9207C22.8 28.8896 22.6377 28.8451 22.4799 28.7877C21.9456 28.6099 21.4918 28.2487 21.1989 27.7683C21.1345 27.8784 21.0613 27.9832 20.98 28.0815C20.3617 28.8143 19.3471 28.9975 18.4389 28.9236C18.2562 28.9112 18.075 28.8826 17.8975 28.838C18.1968 29.4479 18.6538 29.967 19.2212 30.3416C19.7886 30.7161 20.4458 30.9325 21.125 30.9684C23.0745 31.0689 24.1128 29.5796 24.4826 28.9C24.2277 28.9657 23.9649 28.9965 23.7016 28.9916ZM23.2047 29.7303C22.6653 30.2417 21.9485 30.5245 21.2049 30.5193C20.4577 30.5203 19.7367 30.2445 19.1814 29.7451L19.1636 29.7274V29.7008C19.3536 29.3366 19.6419 29.0328 19.9959 28.8239C20.3499 28.615 20.7554 28.5093 21.1664 28.5188H21.1842C21.594 28.5091 21.9987 28.6116 22.3543 28.8153C22.71 29.0189 23.0031 29.316 23.2017 29.6742V29.6978L23.2047 29.7303Z" fill="black"/>
<path d="M23.2139 29.686C23.0152 29.3278 22.7222 29.0308 22.3665 28.8271C22.0108 28.6235 21.6061 28.5209 21.1963 28.5307H21.1786C20.7675 28.5212 20.362 28.6269 20.0081 28.8358C19.6541 29.0447 19.3658 29.3484 19.1758 29.7126V29.7392L19.1935 29.7569C19.7488 30.2563 20.4698 30.5322 21.217 30.5311C21.9607 30.5363 22.6774 30.2535 23.2168 29.7422L23.2346 29.7215L23.2139 29.686ZM22.779 29.9815C22.3121 30.2894 21.7646 30.4528 21.2052 30.4513C20.6484 30.4515 20.1029 30.2948 19.6314 29.9992C19.6066 29.9852 19.5828 29.9694 19.5603 29.952C19.5929 29.7569 19.7704 28.9089 20.4301 28.9089C20.5973 28.9005 20.7624 28.9484 20.8992 29.0448C21.0359 29.1412 21.1364 29.2806 21.1845 29.4408C21.2351 29.2809 21.3362 29.1417 21.4728 29.0442C21.6094 28.9467 21.7739 28.8961 21.9418 28.9C22.1984 28.9197 22.4373 29.0383 22.6079 29.2308C22.7785 29.4233 22.8674 29.6745 22.8559 29.9313L22.779 29.9815Z" fill="#E2817A"/>
<path d="M22.8556 29.9196L22.7787 29.9699C22.3118 30.2777 21.7643 30.4412 21.2049 30.4397C20.6481 30.4399 20.1027 30.2832 19.6311 29.9876C19.6063 29.9736 19.5826 29.9578 19.5601 29.9403C19.5926 29.7453 19.7701 28.8973 20.4298 28.8973C20.597 28.8889 20.7622 28.9367 20.8989 29.0332C21.0357 29.1296 21.1361 29.269 21.1842 29.4291C21.2348 29.2692 21.3359 29.1301 21.4725 29.0326C21.6091 28.935 21.7737 28.8844 21.9415 28.8884C22.1981 28.9081 22.437 29.0267 22.6076 29.2192C22.7782 29.4116 22.8671 29.6628 22.8556 29.9196Z" fill="#FCA89F"/>
<path d="M25.9446 27.9695C25.6125 28.4234 25.1323 28.7474 24.5867 28.8855C24.553 28.8971 24.5183 28.906 24.4832 28.9121C24.2276 28.9738 23.9649 29.0006 23.7022 28.9919C23.5379 28.9891 23.374 28.9772 23.2111 28.9564L22.9655 28.921C22.8005 28.8898 22.6382 28.8454 22.4804 28.788C21.9462 28.6101 21.4923 28.249 21.1995 27.7686C21.1351 27.8787 21.0619 27.9835 20.9805 28.0818C20.3623 28.8146 19.3476 28.9978 18.4394 28.9239C18.2567 28.9115 18.0755 28.8828 17.898 28.8382L17.7974 28.8116C17.2717 28.6751 16.8089 28.3621 16.4869 27.9252C16.3059 27.6551 16.1821 27.3509 16.1231 27.0313C16.0641 26.7117 16.0711 26.3834 16.1437 26.0666C16.3656 27.411 17.0638 28.3714 18.4749 28.4305C18.9706 28.4629 19.4676 28.3904 19.9333 28.2177C20.1705 28.1214 20.3837 27.9745 20.558 27.7871C20.7322 27.5998 20.8633 27.3766 20.9421 27.1333V27.1126L20.9835 25.7534C19.1849 25.6056 18.6553 23.8121 18.6553 23.8121C18.6553 23.8121 18.8772 22.6301 21.1462 22.6301C23.4152 22.6301 23.7318 23.7441 23.7318 23.7441C23.7318 23.7441 23.2525 25.5909 21.4598 25.7416L21.4361 27.0801C21.5338 27.4031 21.7166 27.6939 21.9654 27.9221C22.2141 28.1503 22.5197 28.3075 22.8502 28.3773C23.058 28.4325 23.2713 28.4642 23.4862 28.4718C23.9776 28.5224 24.473 28.4289 24.9121 28.2029C25.1456 28.0668 25.3474 27.8825 25.5038 27.6622C25.7064 27.4564 25.8706 27.2163 25.989 26.953C26.1207 26.6739 26.2028 26.3739 26.2315 26.0666H26.2493C26.3596 26.7171 26.2525 27.3858 25.9446 27.9695Z" fill="black"/>
<path d="M29.3731 5.36196C27.675 4.9109 25.9355 4.63271 24.1813 4.53166H24.0955C23.6192 4.49916 23.1429 4.48142 22.6755 4.47256H22.3265H21.1904H20.9124H20.8414H20.5455C20.4391 4.47256 20.3325 4.47256 20.229 4.47256C19.9125 4.47256 19.6019 4.50212 19.2972 4.51985L19.0989 4.53462H18.9037H18.6907L18.2736 4.56712H18.1907C16.4023 4.71651 14.6242 4.97107 12.8658 5.32947L12.9161 5.30582C15.6602 4.03727 18.6585 3.41264 21.6815 3.47974C24.3029 3.57695 26.8798 4.18629 29.2666 5.27332L29.3731 5.36196Z" fill="#C4A400"/>
<path d="M30.1155 19.1758C30.0877 18.4169 29.8298 17.6843 29.3759 17.0749C29.2008 16.8224 28.9662 16.6167 28.6928 16.476C28.4194 16.3354 28.1155 16.264 27.808 16.2682C26.6839 16.3273 25.823 17.6097 25.823 19.1728C25.823 19.2497 25.823 19.3295 25.823 19.4063C25.9088 21.0344 26.8998 22.3168 28.0447 22.3168H28.1275C28.4347 22.2872 28.7299 22.1832 28.9877 22.0138C29.2454 21.8443 29.4579 21.6147 29.6067 21.3447C29.9929 20.6901 30.1703 19.9336 30.1155 19.1758ZM27.453 19.8791H27.4234C27.0892 19.8791 26.7933 19.4477 26.7519 18.901C26.7519 18.8596 26.7519 18.8212 26.7519 18.7799C26.7519 18.2716 26.9886 17.858 27.311 17.8343C27.6335 17.8107 27.9678 18.248 28.0092 18.8124C28.0506 19.3767 27.8051 19.8525 27.453 19.8791Z" fill="black"/>
<path d="M27.4534 19.8791H27.4238C27.0895 19.8791 26.7937 19.4477 26.7523 18.9011C26.7523 18.8597 26.7523 18.8213 26.7523 18.7799C26.7523 18.2717 26.9889 17.858 27.3114 17.8344C27.6338 17.8108 27.9681 18.2481 28.0095 18.8125C28.0509 19.3768 27.8054 19.8526 27.4534 19.8791Z" fill="white"/>
<path d="M30.8876 14.9269C30.3928 15.2332 29.8274 15.4073 29.2458 15.4322H28.9677C28.4794 15.4388 27.9956 15.3379 27.5507 15.1367C27.0803 14.9062 26.8082 14.5783 26.7845 14.2089C26.7899 13.9974 26.8521 13.7913 26.9645 13.612C27.0769 13.4326 27.2354 13.2867 27.4235 13.1895C27.9181 12.885 28.482 12.7111 29.0624 12.6842C30.3729 12.5985 31.4763 13.1393 31.5237 13.8957C31.5503 14.2828 31.3225 14.6403 30.8876 14.9269Z" fill="white"/>
<path d="M35.7362 7.53668C35.7354 7.67672 35.6794 7.8108 35.5802 7.90982C35.4811 8.00885 35.3469 8.06483 35.2067 8.06561C35.1013 8.06663 34.9982 8.0357 34.9108 7.97695C33.6506 7.14664 31.3313 5.5865 30.3906 4.95712C30.3293 4.91557 30.2786 4.86025 30.2427 4.79558C30.2067 4.73092 30.1864 4.65872 30.1835 4.58481C30.1799 4.5111 30.1938 4.43759 30.2241 4.3703C30.2545 4.30302 30.3004 4.24388 30.358 4.19773C31.1005 3.60676 32.4909 2.48984 33.4642 1.85159C33.5646 1.78578 33.6771 1.74038 33.795 1.71797C33.913 1.69557 34.0343 1.6966 34.1519 1.72102C34.2694 1.74544 34.3811 1.79278 34.4803 1.8603C34.5796 1.92783 34.6646 2.01424 34.7304 2.11458C34.9738 2.48191 35.1538 2.88742 35.2629 3.31424C35.5707 4.70087 35.7294 6.11638 35.7362 7.53668Z" fill="#C4A400"/>
<path d="M21.5897 40.6425C21.0286 40.6425 20.4801 40.4763 20.0135 40.1649C19.547 39.8535 19.1834 39.411 18.9686 38.8932C18.7539 38.3754 18.6977 37.8056 18.8072 37.2559C18.9167 36.7063 19.1869 36.2014 19.5836 35.8051C19.9804 35.4088 20.4859 35.1389 21.0362 35.0295C21.5865 34.9202 22.157 34.9763 22.6754 35.1908C23.1938 35.4053 23.6368 35.7685 23.9486 36.2345C24.2603 36.7005 24.4267 37.2483 24.4267 37.8088C24.4259 38.5601 24.1268 39.2804 23.5949 39.8116C23.063 40.3429 22.3419 40.6417 21.5897 40.6425Z" fill="black"/>
<path d="M21.5898 35.6489C21.1614 35.6489 20.7426 35.7758 20.3864 36.0136C20.0302 36.2514 19.7527 36.5894 19.5889 36.9848C19.4251 37.3802 19.3823 37.8153 19.4661 38.2349C19.5499 38.6546 19.7565 39.04 20.0596 39.3423C20.3628 39.6447 20.7489 39.8505 21.1691 39.9336C21.5894 40.0167 22.0249 39.9735 22.4205 39.8093C22.8162 39.6452 23.1542 39.3675 23.3918 39.0114C23.6294 38.6553 23.7559 38.2368 23.7553 37.8089C23.7545 37.2358 23.526 36.6864 23.12 36.2814C22.714 35.8764 22.1636 35.6489 21.5898 35.6489Z" fill="#FDCA14"/>
<path d="M66.0519 7.71196C65.7279 7.44767 65.357 7.33684 64.9393 7.37946C64.5301 7.43062 64.1976 7.61818 63.9418 7.94215L59.2357 13.8248L54.5424 7.94215C54.2781 7.61818 53.9413 7.43062 53.5321 7.37946C53.1144 7.33684 52.7435 7.44767 52.4195 7.71196C52.0955 7.96773 51.9122 8.30022 51.8696 8.70945C51.8185 9.1272 51.925 9.49806 52.1893 9.82204L57.7267 16.7533V24.1578C57.7267 24.5755 57.8759 24.9336 58.1743 25.232C58.4641 25.5218 58.8179 25.6668 59.2357 25.6668C59.6535 25.6668 60.0073 25.5218 60.2971 25.232C60.5955 24.9336 60.7447 24.5755 60.7447 24.1578V16.7533L66.2821 9.82204C66.5464 9.49806 66.6572 9.1272 66.6146 8.70945C66.5634 8.30022 66.3759 7.96773 66.0519 7.71196Z" fill="white"/>
<path d="M72.9228 22.6359V17.9938H78.4985C78.9163 17.9938 79.2743 17.8488 79.5727 17.559C79.8711 17.2606 80.0203 16.9025 80.0203 16.4848C80.0203 16.067 79.8711 15.7089 79.5727 15.4105C79.2743 15.1207 78.9163 14.9757 78.4985 14.9757H72.9228V10.3336L80.647 10.3591H80.6597C81.0775 10.3591 81.4313 10.2099 81.7212 9.91155C82.0196 9.62169 82.1688 9.26787 82.1688 8.85012C82.1688 8.43237 82.0238 8.0743 81.734 7.7759C81.4356 7.47751 81.0775 7.32831 80.6597 7.32831L71.4138 7.30273H71.401C70.9832 7.30273 70.6294 7.45193 70.3396 7.75033C70.0412 8.04019 69.892 8.39827 69.892 8.82455V24.1578C69.892 24.5755 70.0412 24.9293 70.3396 25.2192C70.6294 25.5176 70.9832 25.6668 71.401 25.6668H80.6597C81.0775 25.6668 81.4313 25.5176 81.7212 25.2192C82.0196 24.9293 82.1688 24.5755 82.1688 24.1578C82.1688 23.74 82.0196 23.3819 81.7212 23.0835C81.4313 22.7851 81.0775 22.6359 80.6597 22.6359H72.9228Z" fill="white"/>
<path d="M87.3133 7.32831C86.8955 7.32831 86.5417 7.47751 86.2518 7.7759C85.9534 8.06577 85.8042 8.41958 85.8042 8.83733V24.1578C85.8042 24.5755 85.9534 24.9293 86.2518 25.2192C86.5417 25.5176 86.8955 25.6668 87.3133 25.6668H95.5873C96.0051 25.6668 96.3631 25.5176 96.6615 25.2192C96.9514 24.9293 97.0963 24.5755 97.0963 24.1578C97.0963 23.74 96.9514 23.3862 96.6615 23.0963C96.3631 22.7979 96.0051 22.6487 95.5873 22.6487H88.8223V8.83733C88.8223 8.41958 88.6731 8.06577 88.3747 7.7759C88.0848 7.47751 87.731 7.32831 87.3133 7.32831Z" fill="white"/>
<path d="M101.576 7.32831C101.158 7.32831 100.804 7.47751 100.514 7.7759C100.216 8.06577 100.067 8.41958 100.067 8.83733V24.1578C100.067 24.5755 100.216 24.9293 100.514 25.2192C100.804 25.5176 101.158 25.6668 101.576 25.6668H109.85C110.268 25.6668 110.626 25.5176 110.924 25.2192C111.214 24.9293 111.359 24.5755 111.359 24.1578C111.359 23.74 111.214 23.3862 110.924 23.0963C110.626 22.7979 110.268 22.6487 109.85 22.6487H103.085V8.83733C103.085 8.41958 102.936 8.06577 102.637 7.7759C102.347 7.47751 101.994 7.32831 101.576 7.32831Z" fill="white"/>
<path d="M122.309 10.3208C124.006 10.3208 125.459 10.9218 126.67 12.1239C127.872 13.3346 128.473 14.7882 128.473 16.4848C128.473 18.1813 127.872 19.6307 126.67 20.8328C125.459 22.0434 124.006 22.6487 122.309 22.6487C120.613 22.6487 119.163 22.0434 117.961 20.8328C116.751 19.6307 116.145 18.1813 116.145 16.4848C116.145 14.7882 116.751 13.3346 117.961 12.1239C119.163 10.9218 120.613 10.3208 122.309 10.3208ZM122.309 25.6668C124.841 25.6668 127.007 24.7673 128.806 22.9684C130.596 21.1781 131.491 19.0168 131.491 16.4848C131.491 13.9527 130.596 11.7872 128.806 9.98828C127.007 8.19792 124.841 7.30273 122.309 7.30273C119.777 7.30273 117.616 8.19792 115.826 9.98828C114.027 11.7872 113.127 13.9527 113.127 16.4848C113.127 19.0168 114.027 21.1781 115.826 22.9684C117.616 24.7673 119.777 25.6668 122.309 25.6668Z" fill="white"/>
<path d="M157.916 7.41783C157.515 7.28142 157.127 7.30273 156.752 7.48177C156.377 7.66933 156.121 7.9592 155.985 8.35138L152.033 19.6051L148.081 8.35138C148.081 8.35138 148.081 8.34711 148.081 8.33859C148.073 8.32154 148.06 8.2917 148.043 8.24907C148.026 8.21497 148.017 8.19792 148.017 8.19792C148.017 8.19792 148.009 8.1766 147.992 8.13398C147.924 8.00609 147.838 7.891 147.736 7.78869C147.625 7.67786 147.502 7.58834 147.365 7.52014C147.331 7.49456 147.314 7.48177 147.314 7.48177C147.314 7.48177 147.293 7.47751 147.25 7.46898C147.216 7.45193 147.19 7.43914 147.173 7.43062H147.161V7.41783C147.152 7.41783 147.144 7.41783 147.135 7.41783C147.127 7.41783 147.122 7.41357 147.122 7.40504C147.08 7.39652 147.046 7.38799 147.02 7.37946L146.969 7.36668C146.926 7.35815 146.896 7.35389 146.879 7.35389H146.815C146.781 7.34536 146.751 7.3411 146.726 7.3411H146.585C146.568 7.3411 146.547 7.3411 146.521 7.3411C146.479 7.34962 146.449 7.35389 146.432 7.35389C146.415 7.35389 146.393 7.35815 146.368 7.36668C146.334 7.3752 146.308 7.37946 146.291 7.37946C146.274 7.38799 146.248 7.39652 146.214 7.40504C146.172 7.42209 146.155 7.42635 146.163 7.41783C146.146 7.42635 146.142 7.43062 146.15 7.43062C146.142 7.43062 146.116 7.43914 146.074 7.45619L146.01 7.48177C146.018 7.48177 146.005 7.4903 145.971 7.50735C145.826 7.58408 145.698 7.67786 145.588 7.78869C145.485 7.891 145.4 8.01036 145.332 8.14676C145.315 8.18087 145.302 8.19792 145.294 8.19792C145.302 8.18939 145.294 8.21071 145.268 8.26186C145.259 8.29596 145.251 8.32154 145.242 8.33859V8.35138L141.291 19.6051L137.339 8.35138C137.194 7.9592 136.934 7.66933 136.559 7.48177C136.184 7.30273 135.8 7.28142 135.408 7.41783C135.016 7.56276 134.73 7.82279 134.551 8.19792C134.372 8.57304 134.351 8.95669 134.487 9.34887L139.858 24.6565C139.858 24.6565 139.863 24.6608 139.871 24.6693C139.888 24.729 139.914 24.7929 139.948 24.8611C139.957 24.8696 139.965 24.8824 139.974 24.8995C140.008 24.9592 140.046 25.0146 140.089 25.0657C140.089 25.0657 140.093 25.0743 140.101 25.0913C140.144 25.1425 140.187 25.1893 140.229 25.232C140.255 25.2576 140.263 25.2661 140.255 25.2576C140.306 25.3002 140.357 25.3428 140.408 25.3854C140.417 25.3854 140.421 25.3897 140.421 25.3982C140.43 25.3982 140.438 25.4025 140.447 25.411C140.498 25.4451 140.549 25.475 140.6 25.5005C140.626 25.5091 140.634 25.5133 140.626 25.5133C140.685 25.5389 140.741 25.5602 140.792 25.5773C140.826 25.5943 140.83 25.5986 140.805 25.59C140.856 25.6071 140.916 25.6199 140.984 25.6284C141.052 25.6455 141.073 25.6497 141.048 25.6412C141.125 25.6583 141.206 25.6668 141.291 25.6668C141.368 25.6668 141.444 25.6583 141.521 25.6412C141.504 25.6497 141.525 25.6455 141.585 25.6284C141.653 25.6199 141.713 25.6071 141.764 25.59C141.738 25.5986 141.747 25.5943 141.79 25.5773C141.832 25.5602 141.883 25.5389 141.943 25.5133C141.934 25.5133 141.943 25.5091 141.969 25.5005C142.02 25.475 142.071 25.4451 142.122 25.411C142.165 25.3854 142.177 25.3769 142.16 25.3854C142.22 25.3428 142.271 25.3002 142.314 25.2576C142.305 25.2661 142.314 25.2576 142.339 25.232C142.382 25.1893 142.425 25.1467 142.467 25.1041C142.501 25.0529 142.51 25.0402 142.493 25.0657C142.527 25.0146 142.561 24.9592 142.595 24.8995C142.604 24.891 142.612 24.8782 142.621 24.8611C142.655 24.7929 142.685 24.729 142.71 24.6693C142.71 24.6608 142.71 24.6565 142.71 24.6565L146.662 13.4028L150.613 24.6565C150.613 24.6565 150.613 24.6608 150.613 24.6693C150.639 24.729 150.669 24.7929 150.703 24.8611C150.712 24.8696 150.72 24.8824 150.729 24.8995C150.763 24.9592 150.797 25.0146 150.831 25.0657C150.831 25.0657 150.839 25.0743 150.856 25.0913C150.891 25.1425 150.929 25.1893 150.972 25.232C150.997 25.2576 151.01 25.2661 151.01 25.2576C151.053 25.3002 151.104 25.3428 151.163 25.3854C151.163 25.3854 151.168 25.3897 151.176 25.3982C151.185 25.3982 151.189 25.4025 151.189 25.411C151.24 25.4451 151.291 25.475 151.342 25.5005C151.368 25.5091 151.381 25.5133 151.381 25.5133C151.432 25.5389 151.483 25.5602 151.534 25.5773C151.568 25.5943 151.577 25.5986 151.56 25.59C151.602 25.6071 151.658 25.6199 151.726 25.6284C151.794 25.6455 151.816 25.6497 151.79 25.6412C151.875 25.6583 151.956 25.6668 152.033 25.6668C152.11 25.6668 152.191 25.6583 152.276 25.6412C152.25 25.6497 152.272 25.6455 152.34 25.6284C152.408 25.6199 152.468 25.6071 152.519 25.59C152.493 25.5986 152.498 25.5943 152.532 25.5773C152.583 25.5602 152.638 25.5389 152.698 25.5133C152.689 25.5133 152.698 25.5091 152.724 25.5005C152.775 25.475 152.826 25.4451 152.877 25.411C152.911 25.3854 152.924 25.3769 152.915 25.3854C152.967 25.3428 153.018 25.3002 153.069 25.2576C153.06 25.2661 153.069 25.2576 153.094 25.232C153.137 25.1893 153.175 25.1467 153.209 25.1041C153.244 25.0529 153.252 25.0402 153.235 25.0657C153.278 25.0146 153.316 24.9592 153.35 24.8995C153.35 24.891 153.359 24.8782 153.376 24.8611C153.41 24.7929 153.435 24.729 153.452 24.6693V24.6565L158.836 9.34887C158.973 8.95669 158.951 8.57304 158.772 8.19792C158.593 7.82279 158.308 7.56276 157.916 7.41783Z" fill="white"/>
<path d="M53.379 31.3979H53.3662C52.9484 31.3979 52.5946 31.5471 52.3048 31.8455C52.0064 32.1354 51.8572 32.4935 51.8572 32.9198V48.253C51.8572 48.6707 52.0064 49.0245 52.3048 49.3144C52.5946 49.6128 52.9484 49.762 53.3662 49.762C53.784 49.762 54.142 49.6128 54.4404 49.3144C54.7388 49.0245 54.888 48.6707 54.888 48.253V42.089H60.4637C60.8815 42.089 61.2396 41.9441 61.5379 41.6542C61.8363 41.3558 61.9855 40.9977 61.9855 40.58C61.9855 40.1622 61.8363 39.8041 61.5379 39.5058C61.2396 39.2159 60.8815 39.0709 60.4637 39.0709H54.888V34.4288L62.6122 34.4544H62.625C63.0427 34.4544 63.3965 34.3052 63.6864 34.0068C63.9848 33.7169 64.134 33.3631 64.134 32.9453C64.134 32.5276 63.989 32.1695 63.6992 31.8711C63.4008 31.5727 63.0427 31.4235 62.625 31.4235L53.379 31.3979Z" fill="white"/>
<path d="M68.703 31.4235C68.2852 31.4235 67.9314 31.5727 67.6416 31.8711C67.3432 32.161 67.194 32.5148 67.194 32.9325V48.253C67.194 48.6707 67.3432 49.0245 67.6416 49.3144C67.9314 49.6128 68.2852 49.762 68.703 49.762H76.977C77.3948 49.762 77.7529 49.6128 78.0513 49.3144C78.3411 49.0245 78.4861 48.6707 78.4861 48.253C78.4861 47.8352 78.3411 47.4814 78.0513 47.1915C77.7529 46.8931 77.3948 46.7439 76.977 46.7439H70.212V32.9325C70.212 32.5148 70.0628 32.161 69.7644 31.8711C69.4746 31.5727 69.1207 31.4235 68.703 31.4235Z" fill="white"/>
<path d="M89.4365 34.416C91.133 34.416 92.5867 35.017 93.7973 36.2192C94.9994 37.4298 95.6004 38.8834 95.6004 40.58C95.6004 42.2766 94.9994 43.7259 93.7973 44.928C92.5867 46.1386 91.133 46.7439 89.4365 46.7439C87.7399 46.7439 86.2905 46.1386 85.0884 44.928C83.8778 43.7259 83.2725 42.2766 83.2725 40.58C83.2725 38.8834 83.8778 37.4298 85.0884 36.2192C86.2905 35.017 87.7399 34.416 89.4365 34.416ZM89.4365 49.762C91.9685 49.762 94.134 48.8625 95.9329 47.0637C97.7233 45.2733 98.6185 43.1121 98.6185 40.58C98.6185 38.0479 97.7233 35.8824 95.9329 34.0835C94.134 32.2931 91.9685 31.3979 89.4365 31.3979C86.9044 31.3979 84.7431 32.2931 82.9528 34.0835C81.1539 35.8824 80.2544 38.0479 80.2544 40.58C80.2544 43.1121 81.1539 45.2733 82.9528 47.0637C84.7431 48.8625 86.9044 49.762 89.4365 49.762Z" fill="white"/>
<path d="M104.236 49.6469C104.645 49.6469 104.999 49.4977 105.298 49.1993C105.587 48.9094 105.732 48.5599 105.732 48.1507V44.0328L106.998 42.69L113.277 49.3016C113.576 49.6085 113.938 49.762 114.364 49.762C114.765 49.762 115.11 49.6256 115.4 49.3528C115.699 49.0629 115.852 48.7134 115.861 48.3041C115.869 47.8949 115.733 47.5368 115.452 47.2299L109.07 40.516L115.209 34.0579C115.498 33.7595 115.635 33.4015 115.618 32.9837C115.609 32.5745 115.456 32.2292 115.157 31.9478C114.859 31.658 114.505 31.5173 114.096 31.5258C113.678 31.5429 113.329 31.7006 113.047 31.999L105.732 39.6848V32.9581C105.732 32.5489 105.587 32.1994 105.298 31.9095C104.999 31.6111 104.645 31.4619 104.236 31.4619C103.827 31.4619 103.473 31.6111 103.175 31.9095C102.885 32.1994 102.74 32.5489 102.74 32.9581V48.1507C102.74 48.5599 102.885 48.9094 103.175 49.1993C103.473 49.4977 103.827 49.6469 104.236 49.6469Z" fill="white"/>
<path d="M121.005 49.762C121.423 49.762 121.777 49.6128 122.067 49.3144C122.365 49.0245 122.514 48.6707 122.514 48.253V32.9965C122.514 32.5787 122.365 32.2249 122.067 31.9351C121.777 31.6367 121.423 31.4875 121.005 31.4875C120.587 31.4875 120.234 31.6367 119.944 31.9351C119.645 32.2249 119.496 32.5787 119.496 32.9965V48.253C119.496 48.6707 119.645 49.0245 119.944 49.3144C120.234 49.6128 120.587 49.762 121.005 49.762Z" fill="white"/>
</svg>
